<svg height="490pt" viewBox="-4 0 490 490.82915" width="490pt" xmlns="http://www.w3.org/2000/svg"><path d="m429.214844 73.25h30.242187l15.167969 131.882812c2 17.328126-12.339844 32.457032-30.75 32.457032h-123.507812c-18.410157 0-32.742188-15.128906-30.75-32.457032l11.578124-100.683593 3.589844-31.199219zm0 0" fill="#00efd1"/><path d="m365.855469 428.050781v.121094c-.03125 30.230469-24.546875 54.726563-54.78125 54.730469h-.179688c-1.257812 0-2.507812-.050782-3.75-.140625-28.726562-2.003907-51-25.910157-50.96875-54.710938v-35.417969h-183.609375v-.492187l1.949219-287.691406h226.679687l-11.578124 100.683593c-1.992188 17.328126 12.339843 32.457032 30.75 32.457032h45.488281zm-216.679688-222.757812c9.730469 0 17.609375-7.511719 17.609375-16.792969 0-9.277344-7.878906-16.789062-17.609375-16.789062s-17.601562 7.519531-17.601562 16.789062 7.882812 16.792969 17.601562 16.792969zm0 69.539062c9.730469 0 17.609375-7.519531 17.609375-16.789062 0-9.273438-7.878906-16.800781-17.609375-16.800781s-17.601562 7.519531-17.601562 16.800781c0 9.277343 7.882812 16.789062 17.601562 16.789062zm0 69.539063c9.730469 0 17.609375-7.519532 17.609375-16.800782 0-9.277343-7.878906-16.789062-17.609375-16.789062s-17.601562 7.519531-17.601562 16.789062c0 9.269532 7.882812 16.800782 17.601562 16.800782zm0 0" fill="#fedb41"/><path d="m307.144531 482.761719-.007812.140625h-244.332031c-30.234376-.007813-54.75-24.496094-54.789063-54.730469v-35.539063h248.160156v35.417969c-.03125 28.800781 22.242188 52.707031 50.96875 54.710938zm0 0" fill="#00acea"/><path d="m166.785156 188.5c0 9.28125-7.878906 16.792969-17.609375 16.792969s-17.601562-7.511719-17.601562-16.792969c0-9.277344 7.882812-16.789062 17.601562-16.789062s17.609375 7.519531 17.609375 16.789062zm0 0" fill="#00efd1"/><path d="m166.785156 258.042969c0 9.269531-7.878906 16.789062-17.609375 16.789062s-17.601562-7.519531-17.601562-16.789062c0-9.273438 7.882812-16.800781 17.601562-16.800781s17.609375 7.519531 17.609375 16.800781zm0 0" fill="#00efd1"/><path d="m166.785156 327.570312c0 9.28125-7.878906 16.800782-17.609375 16.800782s-17.601562-7.519532-17.601562-16.800782c0-9.277343 7.882812-16.789062 17.601562-16.789062s17.609375 7.519531 17.609375 16.789062zm0 0" fill="#00efd1"/><g fill="#083863"><path d="m149.175781 233.242188c-14.117187 0-25.601562 11.125-25.601562 24.800781 0 13.671875 11.484375 24.789062 25.601562 24.789062 14.117188 0 25.609375-11.121093 25.609375-24.789062 0-13.671875-11.488281-24.800781-25.609375-24.800781zm0 33.589843c-5.292969 0-9.601562-3.945312-9.601562-8.789062 0-4.847657 4.308593-8.800781 9.601562-8.800781s9.609375 3.945312 9.609375 8.800781c0 4.851562-4.3125 8.789062-9.609375 8.789062zm0 0"/><path d="m307.183594 250.449219h-106.660156c-4.417969 0-8 3.582031-8 8 0 4.421875 3.582031 8 8 8h106.660156c4.421875 0 8-3.578125 8-8 0-4.417969-3.578125-8-8-8zm0 0"/><path d="m149.175781 163.710938c-14.117187 0-25.601562 11.121093-25.601562 24.789062 0 13.671875 11.484375 24.792969 25.601562 24.792969 14.117188 0 25.609375-11.121094 25.609375-24.792969 0-13.667969-11.488281-24.789062-25.609375-24.789062zm0 33.582031c-5.292969 0-9.601562-3.945313-9.601562-8.792969 0-4.84375 4.308593-8.789062 9.601562-8.789062s9.609375 3.941406 9.609375 8.789062-4.3125 8.792969-9.609375 8.792969zm0 0"/><path d="m149.175781 302.78125c-14.117187 0-25.601562 11.121094-25.601562 24.789062 0 13.667969 11.484375 24.800782 25.601562 24.800782 14.117188 0 25.609375-11.125 25.609375-24.800782 0-13.675781-11.488281-24.789062-25.609375-24.789062zm0 33.589844c-5.292969 0-9.601562-3.949219-9.601562-8.800782 0-4.851562 4.308593-8.789062 9.601562-8.789062s9.609375 3.941406 9.609375 8.789062c0 4.847657-4.3125 8.800782-9.609375 8.800782zm0 0"/><path d="m307.183594 319.449219h-106.660156c-4.417969 0-8 3.582031-8 8 0 4.421875 3.582031 8 8 8h106.660156c4.421875 0 8-3.578125 8-8 0-4.417969-3.578125-8-8-8zm0 0"/><path d="m467.402344 72.4375c-.472656-4.019531-3.902344-7.03125-7.945313-6.988281h-22.042969v-14.15625c-.058593-13.796875-5.816406-26.957031-15.90625-36.359375-10.335937-9.679688-23.988281-15.0234378-38.148437-14.933594-29.613281 0-53.945313 23.011719-53.945313 51.292969v14.15625h-24.628906c-4.046875-.042969-7.472656 2.96875-7.949218 6.988281l-2.773438 24.011719h-219.546875c-2.101563-.019531-4.128906.796875-5.628906 2.273437-1.5 1.472656-2.351563 3.480469-2.371094 5.585938l-1.898437 280.140625h-56.601563c-4.417969 0-7.601563 3.765625-7.601563 8.183593v35.550782c-.15625 33.640625 26.382813 61.351562 60 62.644531v-.378906h247v.320312c1 .082031 2.265626-.320312 3.480469-.320312h.179688c16.542969.070312 32.429687-6.46875 44.136719-18.160157 11.703124-11.695312 18.257812-27.574218 18.203124-44.117187v-182.722656h70.460938c11.277344.085937 22.054688-4.648438 29.621094-13.011719 6.96875-7.640625 10.28125-17.933594 9.078125-28.207031zm-121.988282-21.144531c0-19.460938 17.101563-35.292969 37.894532-35.292969 10.039062-.082031 19.730468 3.683594 27.074218 10.523438 6.929688 6.386718 10.921876 15.34375 11.03125 24.769531v14.15625h-76zm-329 376.878906v-27.722656h232v27.59375c0 18.492187 7.839844 35.40625 20.753907 46.40625h-206.363281c-12.304688.074219-24.132813-4.773438-32.84375-13.464844-8.714844-8.691406-13.589844-20.507813-13.546876-32.8125zm341-.007813c.054688 12.3125-4.820312 24.132813-13.535156 32.828126-8.71875 8.699218-20.550781 13.542968-32.863281 13.457031h-.121094c-1.011719 0-1.960937.1875-3.082031.101562-24.4375-1.683593-43.402344-22-43.398438-46.5v-35.417969c-.097656-4.5-3.738281-8.117187-8.238281-8.183593h-175.558593l1.84375-272h209.761718l-7.828125 68h-83.871093c-4.417969 0-8 3.582031-8 8 0 4.421875 3.582031 8 8 8h82.03125l-.886719 7.746093c-1.203125 10.285157 2.113281 20.585938 9.089843 28.238282 7.5625 8.359375 18.335938 13.09375 29.609376 13.015625h37.046874zm104.136719-206.371093c-4.53125 4.957031-10.960937 7.742187-17.675781 7.65625h-123.507812c-6.710938.085937-13.140626-2.699219-17.667969-7.648438-3.914063-4.234375-5.789063-9.960937-5.136719-15.691406l14.351562-124.660156h17.5v11.492187c0 4.417969 3.582032 8 8 8 4.417969 0 8-3.582031 8-8v-11.492187h76v11.492187c0 4.417969 3.582032 8 8 8 4.417969 0 8-3.582031 8-8v-11.492187h14.910157l14.355469 124.664062c.65625 5.722657-1.21875 11.449219-5.128907 15.679688zm0 0"/></g></svg>